<svg version="1.1" viewBox="0.0 0.0 100.0 100.0" fill="none" stroke="none" stroke-linecap="square" stroke-miterlimit="10" xmlns:xlink="http://www.w3.org/1999/xlink" xmlns="http://www.w3.org/2000/svg"><clipPath id="p.0"><path d="m0 0l100.0 0l0 100.0l-100.0 0l0 -100.0z" clip-rule="nonzero"/></clipPath><g clip-path="url(#p.0)"><path fill="#000000" fill-opacity="0.0" d="m0 0l100.0 0l0 100.0l-100.0 0z" fill-rule="evenodd"/><path fill="#000000" fill-opacity="0.0" d="m-34.603676 -40.120735l166.70865 0l0 151.2441l-166.70865 0z" fill-rule="evenodd"/><path fill="#b9a5a6" d="m22.050264 33.917564l10.468748 0q2.671875 -10.421875 6.28125 -15.984375q3.625 -5.5625 9.46875 -8.640625q5.84375 -3.0781245 10.953125 -3.0781245q2.921875 0 4.65625 1.1875q1.75 1.1718745 1.75 3.2656245q0 1.703125 -0.875 2.8125q-0.875 1.109375 -2.390625 1.109375q-1.578125 0 -5.0625 -1.5625q-3.53125 -1.53125 -5.140625 -1.53125q-2.890625 0 -4.8125 3.015625q-1.90625 3.0 -3.5625 10.109375l-2.28125 9.296875l11.65625 0l-0.75 3.09375l-11.59375 0l-6.890625 27.78125q-1.9687481 7.859375 -6.093748 13.765625q-4.109375 5.90625 -9.75 9.015625q-5.625001 3.125 -11.765625 3.125q-3.0156252 0 -4.53125 -1.359375q-1.53125 -1.34375 -1.53125 -3.34375q0 -1.828125 1.046875 -2.84375q1.0468749 -1.0 2.78125 -1.0q1.140625 0 2.28125 0.375q1.125 0.375 2.3124995 0.78125q1.171875 0.421875 2.484375 0.78125q1.296875 0.375 2.78125 0.375q2.484376 0 3.968751 -1.109375q1.484375 -1.109375 2.609375 -3.59375q1.140625 -2.484375 2.328125 -7.15625l8.84375 -35.59375l-10.46875 0l0.828125 -3.09375zm29.83734 35.203125q-2.0 0 -3.515625 -1.15625q-1.5 -1.15625 -1.5 -2.78125q0 -1.34375 0.953125 -2.40625q0.96875 -1.078125 2.28125 -1.078125q1.34375 0 2.75 1.703125q1.21875 1.390625 2.34375 1.390625q1.53125 0 4.203125 -2.671875q2.6875 -2.6875 5.265625 -6.390625l3.1875 -4.765625l-2.046875 -9.71875q-0.53125 -2.53125 -1.234375 -3.859375q-0.6875 -1.328125 -1.78125 -1.328125q-0.875 0 -2.6875 1.15625q-1.796875 1.15625 -3.59375 2.671875l-1.21875 -1.78125q9.375 -6.984375 13.296875 -6.984375q2.140625 0 3.40625 1.609375q0.75 1.09375 1.25 3.234375q0.5 2.140625 1.328125 5.796875q8.9375 -12.6875 15.53125 -12.6875q1.828125 0 2.90625 0.875q1.0937424 0.875 1.0937424 2.265625q0 1.171875 -0.640625 1.875q-0.6249924 0.703125 -1.7187424 1.078125q-1.078125 0.359375 -3.609375 0.453125l-1.875 0.078125q-2.65625 0.140625 -4.625 1.625q-1.96875 1.46875 -6.453125 7.578125l3.046875 14.65625q2.1875 10.8125 4.90625 15.59375q2.734375 4.78125 6.09375 4.78125q2.828125 0 4.015625 -3.75q0.9531174 -2.53125 3.1406174 -2.53125q1.046875 0 1.84375 0.78125q0.8125 0.78125 0.8125 2.015625q0 2.296875 -2.796875 4.21875q-2.78125 1.921875 -6.7499924 1.921875q-4.984375 0 -9.265625 -2.984375q-4.265625 -2.984375 -6.78125 -8.921875q-2.5 -5.9375 -4.765625 -16.21875l-1.703125 2.390625q-3.09375 4.5 -5.625 7.25q-2.53125 2.734375 -4.671875 3.875q-2.125 1.140625 -4.796875 1.140625z" fill-rule="nonzero"/></g></svg>