<svg version="1.1" viewBox="0.0 0.0 100.0 100.0" fill="none" stroke="none" stroke-linecap="square" stroke-miterlimit="10" xmlns:xlink="http://www.w3.org/1999/xlink" xmlns="http://www.w3.org/2000/svg"><clipPath id="p.0"><path d="m0 0l100.0 0l0 100.0l-100.0 0l0 -100.0z" clip-rule="nonzero"/></clipPath><g clip-path="url(#p.0)"><path fill="#000000" fill-opacity="0.0" d="m0 0l100.0 0l0 100.0l-100.0 0z" fill-rule="evenodd"/><path fill="#b9a5a6" d="m13.401575 24.729568l0 0c0 8.89159 16.385674 16.099648 36.598427 16.099648c20.212753 0 36.598427 -7.2080574 36.598427 -16.099648l0 50.540863c0 8.891586 -16.385674 16.099648 -36.598427 16.099648c-20.212751 0 -36.598427 -7.208061 -36.598427 -16.099648z" fill-rule="evenodd"/><path fill="#d5c9c9" d="m13.401575 24.729568l0 0c0 -8.891589 16.385674 -16.099648 36.598427 -16.099648c20.212753 0 36.598427 7.2080584 36.598427 16.099648l0 0c0 8.89159 -16.385674 16.099648 -36.598427 16.099648c-20.212751 0 -36.598427 -7.2080574 -36.598427 -16.099648z" fill-rule="evenodd"/><path fill="#000000" fill-opacity="0.0" d="m86.59843 24.729568l0 0c0 8.89159 -16.385674 16.099648 -36.598427 16.099648c-20.212751 0 -36.598427 -7.2080574 -36.598427 -16.099648l0 0c0 -8.891589 16.385674 -16.099648 36.598427 -16.099648c20.212753 0 36.598427 7.2080584 36.598427 16.099648l0 50.540863c0 8.891586 -16.385674 16.099648 -36.598427 16.099648c-20.212751 0 -36.598427 -7.208061 -36.598427 -16.099648l0 -50.540863" fill-rule="evenodd"/><path stroke="#b9a5a6" stroke-width="1.0" stroke-linejoin="round" stroke-linecap="butt" d="m86.59843 24.729568l0 0c0 8.89159 -16.385674 16.099648 -36.598427 16.099648c-20.212751 0 -36.598427 -7.2080574 -36.598427 -16.099648l0 0c0 -8.891589 16.385674 -16.099648 36.598427 -16.099648c20.212753 0 36.598427 7.2080584 36.598427 16.099648l0 50.540863c0 8.891586 -16.385674 16.099648 -36.598427 16.099648c-20.212751 0 -36.598427 -7.208061 -36.598427 -16.099648l0 -50.540863" fill-rule="evenodd"/></g></svg>